<svg xmlns="http://www.w3.org/2000/svg" xmlns:xlink="http://www.w3.org/1999/xlink" width="500" zoomAndPan="magnify" viewBox="0 0 375 59.249999" height="79" preserveAspectRatio="xMidYMid meet" version="1.0"><defs><g/><clipPath id="3f6f7eff0f"><path d="M 2.34375 0 L 372.65625 0 L 372.65625 58.507812 L 2.34375 58.507812 Z M 2.34375 0 " clip-rule="nonzero"/></clipPath></defs><g clip-path="url(#3f6f7eff0f)"><path fill="#ffffff" d="M 2.34375 0 L 372.65625 0 L 372.65625 58.507812 L 2.34375 58.507812 Z M 2.34375 0 " fill-opacity="1" fill-rule="nonzero"/><path fill="#ffffff" d="M 2.34375 0 L 372.65625 0 L 372.65625 58.507812 L 2.34375 58.507812 Z M 2.34375 0 " fill-opacity="1" fill-rule="nonzero"/></g><g fill="#373328" fill-opacity="1"><g transform="translate(22.091284, 44.067187)"><g><path d="M 34.5625 -29.625 L 19.75 -29.625 L 19.75 0 L 14.8125 0 L 14.8125 -29.625 L 0 -29.625 L 0 -34.5625 L 34.5625 -34.5625 Z M 34.5625 -29.625 "/></g></g></g><g fill="#373328" fill-opacity="1"><g transform="translate(60.600822, 44.067187)"><g><path d="M 32.09375 -19.75 L 32.09375 -24.6875 C 32.09375 -26.035156 31.605469 -27.195312 30.636719 -28.167969 C 29.664062 -29.136719 28.503906 -29.625 27.15625 -29.625 L 7.40625 -29.625 L 7.40625 -14.8125 L 27.15625 -14.8125 C 28.503906 -14.8125 29.664062 -15.296875 30.636719 -16.269531 C 31.605469 -17.238281 32.09375 -18.398438 32.09375 -19.75 Z M 37.03125 0 L 33.523438 0 L 23.648438 -9.875 L 7.40625 -9.875 L 7.40625 0 L 2.46875 0 L 2.46875 -34.5625 L 27.15625 -34.5625 C 28.898438 -34.5625 30.519531 -34.117188 32.019531 -33.226562 C 33.515625 -32.339844 34.726562 -31.152344 35.648438 -29.671875 C 36.570312 -28.191406 37.03125 -26.53125 37.03125 -24.6875 L 37.03125 -19.75 C 37.03125 -17.640625 36.394531 -15.726562 35.128906 -13.996094 C 33.859375 -12.269531 32.207031 -11.058594 30.167969 -10.367188 L 37.03125 -3.503906 Z M 37.03125 0 "/></g></g></g><g fill="#373328" fill-opacity="1"><g transform="translate(103.553739, 44.067187)"><g><path d="M 27.15625 -29.625 L 12.34375 -29.625 C 10.992188 -29.625 9.832031 -29.136719 8.863281 -28.167969 C 7.890625 -27.195312 7.40625 -26.035156 7.40625 -24.6875 L 7.40625 -14.8125 L 32.09375 -14.8125 L 32.09375 -24.6875 C 32.09375 -26.035156 31.605469 -27.195312 30.636719 -28.167969 C 29.664062 -29.136719 28.503906 -29.625 27.15625 -29.625 Z M 37.03125 -24.6875 L 37.03125 0 L 32.09375 0 L 32.09375 -9.875 L 7.40625 -9.875 L 7.40625 0 L 2.46875 0 L 2.46875 -24.6875 C 2.46875 -26.429688 2.90625 -28.050781 3.777344 -29.550781 C 4.648438 -31.046875 5.835938 -32.257812 7.332031 -33.179688 C 8.828125 -34.101562 10.5 -34.5625 12.34375 -34.5625 L 27.15625 -34.5625 C 28.933594 -34.5625 30.554688 -34.117188 32.019531 -33.226562 C 33.484375 -32.339844 34.675781 -31.152344 35.597656 -29.671875 C 36.519531 -28.191406 36.996094 -26.53125 37.03125 -24.6875 Z M 37.03125 -24.6875 "/></g></g></g><g fill="#373328" fill-opacity="1"><g transform="translate(147.000375, 44.067187)"><g><path d="M 37.03125 -34.5625 L 37.03125 0 L 32.09375 0 L 7.40625 -26.5625 L 7.40625 0 L 2.46875 0 L 2.46875 -34.5625 L 7.40625 -34.5625 L 32.09375 -8.394531 L 32.09375 -34.5625 Z M 37.03125 -34.5625 "/></g></g></g><g fill="#373328" fill-opacity="1"><g transform="translate(190.446999, 44.067187)"><g><path d="M 36.535156 -9.875 C 36.535156 -8.128906 36.097656 -6.507812 35.226562 -5.011719 C 34.355469 -3.511719 33.171875 -2.304688 31.671875 -1.382812 C 30.175781 -0.460938 28.503906 0 26.660156 0 L 11.847656 0 C 10.070312 0 8.441406 -0.4375 6.960938 -1.308594 C 5.480469 -2.179688 4.296875 -3.367188 3.40625 -4.863281 C 2.519531 -6.359375 2.039062 -8.03125 1.976562 -9.875 L 6.914062 -9.875 C 6.914062 -8.523438 7.398438 -7.363281 8.367188 -6.394531 C 9.339844 -5.421875 10.5 -4.9375 11.847656 -4.9375 L 26.660156 -4.9375 C 28.011719 -4.9375 29.171875 -5.421875 30.140625 -6.394531 C 31.113281 -7.363281 31.597656 -8.523438 31.597656 -9.875 C 31.597656 -11.222656 31.113281 -12.382812 30.140625 -13.355469 C 29.171875 -14.328125 28.011719 -14.8125 26.660156 -14.8125 L 11.847656 -14.8125 C 10.105469 -14.8125 8.476562 -15.246094 6.960938 -16.121094 C 5.449219 -16.992188 4.238281 -18.175781 3.332031 -19.675781 C 2.425781 -21.171875 1.976562 -22.84375 1.976562 -24.6875 C 1.976562 -26.429688 2.410156 -28.050781 3.285156 -29.550781 C 4.15625 -31.046875 5.339844 -32.257812 6.839844 -33.179688 C 8.335938 -34.101562 10.007812 -34.5625 11.847656 -34.5625 L 26.660156 -34.5625 C 28.4375 -34.5625 30.058594 -34.117188 31.523438 -33.226562 C 32.988281 -32.339844 34.183594 -31.152344 35.105469 -29.671875 C 36.027344 -28.191406 36.503906 -26.53125 36.535156 -24.6875 L 31.597656 -24.6875 C 31.597656 -26.035156 31.113281 -27.195312 30.140625 -28.167969 C 29.171875 -29.136719 28.011719 -29.625 26.660156 -29.625 L 11.847656 -29.625 C 10.5 -29.625 9.339844 -29.136719 8.367188 -28.167969 C 7.398438 -27.195312 6.914062 -26.035156 6.914062 -24.6875 C 6.914062 -23.335938 7.398438 -22.175781 8.367188 -21.207031 C 9.339844 -20.234375 10.5 -19.75 11.847656 -19.75 L 26.660156 -19.75 C 28.40625 -19.75 30.027344 -19.304688 31.523438 -18.414062 C 33.023438 -17.527344 34.230469 -16.34375 35.152344 -14.859375 C 36.074219 -13.378906 36.535156 -11.71875 36.535156 -9.875 Z M 36.535156 -9.875 "/></g></g></g><g fill="#ff7a0e" fill-opacity="1"><g transform="translate(232.913596, 44.067187)"><g><path d="M 27.15625 0 L 2.46875 0 L 2.46875 -34.5625 L 27.15625 -34.5625 C 28.898438 -34.5625 30.519531 -34.117188 32.019531 -33.226562 C 33.515625 -32.339844 34.726562 -31.152344 35.648438 -29.671875 C 36.570312 -28.191406 37.03125 -26.53125 37.03125 -24.6875 C 37.03125 -21.722656 35.910156 -19.253906 33.671875 -17.28125 C 35.910156 -15.304688 37.03125 -12.835938 37.03125 -9.875 C 37.03125 -8.097656 36.59375 -6.46875 35.722656 -4.988281 C 34.847656 -3.503906 33.664062 -2.320312 32.167969 -1.433594 C 30.667969 -0.542969 29 -0.0664062 27.15625 0 Z M 27.15625 -14.8125 L 7.40625 -14.8125 L 7.40625 -4.9375 L 27.15625 -4.9375 C 28.503906 -4.9375 29.664062 -5.421875 30.636719 -6.394531 C 31.605469 -7.363281 32.09375 -8.523438 32.09375 -9.875 C 32.09375 -11.222656 31.605469 -12.382812 30.636719 -13.355469 C 29.664062 -14.328125 28.503906 -14.8125 27.15625 -14.8125 Z M 7.40625 -29.625 L 7.40625 -19.75 L 27.15625 -19.75 C 28.503906 -19.75 29.664062 -20.234375 30.636719 -21.207031 C 31.605469 -22.175781 32.09375 -23.335938 32.09375 -24.6875 C 32.09375 -26.035156 31.605469 -27.195312 30.636719 -28.167969 C 29.664062 -29.136719 28.503906 -29.625 27.15625 -29.625 Z M 7.40625 -29.625 "/></g></g></g><g fill="#ff7a0e" fill-opacity="1"><g transform="translate(275.866513, 44.067187)"><g><path d="M 31.597656 -9.875 L 31.597656 -24.6875 C 31.597656 -26.035156 31.113281 -27.195312 30.140625 -28.167969 C 29.171875 -29.136719 28.011719 -29.625 26.660156 -29.625 L 11.847656 -29.625 C 10.5 -29.625 9.339844 -29.136719 8.367188 -28.167969 C 7.398438 -27.195312 6.914062 -26.035156 6.914062 -24.6875 L 6.914062 -9.875 C 6.914062 -8.523438 7.398438 -7.363281 8.367188 -6.394531 C 9.339844 -5.421875 10.5 -4.9375 11.847656 -4.9375 L 26.660156 -4.9375 C 28.011719 -4.9375 29.171875 -5.421875 30.140625 -6.394531 C 31.113281 -7.363281 31.597656 -8.523438 31.597656 -9.875 Z M 36.535156 -24.6875 L 36.535156 -9.875 C 36.535156 -8.0625 36.089844 -6.410156 35.203125 -4.914062 C 34.3125 -3.414062 33.121094 -2.222656 31.621094 -1.332031 C 30.125 -0.445312 28.472656 0 26.660156 0 L 11.847656 0 C 10.039062 0 8.386719 -0.445312 6.886719 -1.332031 C 5.390625 -2.222656 4.195312 -3.414062 3.308594 -4.914062 C 2.417969 -6.410156 1.976562 -8.0625 1.976562 -9.875 L 1.976562 -24.6875 C 1.976562 -26.496094 2.417969 -28.152344 3.308594 -29.648438 C 4.195312 -31.144531 5.390625 -32.339844 6.886719 -33.226562 C 8.386719 -34.117188 10.039062 -34.5625 11.847656 -34.5625 L 26.660156 -34.5625 C 28.40625 -34.5625 30.027344 -34.109375 31.523438 -33.203125 C 33.023438 -32.296875 34.230469 -31.105469 35.152344 -29.625 C 36.074219 -28.140625 36.535156 -26.496094 36.535156 -24.6875 Z M 36.535156 -24.6875 "/></g></g></g><g fill="#ff7a0e" fill-opacity="1"><g transform="translate(318.325717, 44.067187)"><g><path d="M 34.5625 -29.625 L 19.75 -29.625 L 19.75 0 L 14.8125 0 L 14.8125 -29.625 L 0 -29.625 L 0 -34.5625 L 34.5625 -34.5625 Z M 34.5625 -29.625 "/></g></g></g></svg>